<svg xmlns="http://www.w3.org/2000/svg" xmlns:xlink="http://www.w3.org/1999/xlink" width="1080" zoomAndPan="magnify" viewBox="0 0 810 809.999993" height="1080" preserveAspectRatio="xMidYMid meet" version="1.0"><defs><clipPath id="8b437c77d3"><path d="M 94.664062 182.019531 L 357.164062 182.019531 L 357.164062 506 L 94.664062 506 Z M 94.664062 182.019531 " clip-rule="nonzero"/></clipPath></defs><path fill="#febd69" d="M 238.308594 353.203125 C 238.308594 360.269531 232.578125 366.003906 225.511719 366.003906 C 218.441406 366.003906 212.710938 360.269531 212.710938 353.203125 C 212.710938 346.136719 218.441406 340.402344 225.511719 340.402344 C 232.578125 340.402344 238.308594 346.136719 238.308594 353.203125 Z M 225.511719 399.957031 C 218.441406 399.957031 212.710938 405.6875 212.710938 412.757812 C 212.710938 419.824219 218.441406 425.554688 225.511719 425.554688 C 232.578125 425.554688 238.308594 419.824219 238.308594 412.757812 C 238.308594 405.6875 232.578125 399.957031 225.511719 399.957031 Z M 225.511719 459.511719 C 218.441406 459.511719 212.710938 465.246094 212.710938 472.3125 C 212.710938 479.378906 218.441406 485.113281 225.511719 485.113281 C 232.578125 485.113281 238.308594 479.378906 238.308594 472.3125 C 238.308594 465.246094 232.578125 459.511719 225.511719 459.511719 Z M 276.285156 334.707031 L 276.285156 353.417969 C 276.285156 340.53125 337.839844 340.53125 337.839844 353.417969 L 337.839844 334.707031 C 337.839844 321.859375 276.285156 321.859375 276.285156 334.707031 Z M 276.285156 334.707031 " fill-opacity="1" fill-rule="nonzero"/><g clip-path="url(#8b437c77d3)"><path fill="#ffffff" d="M 325.617188 203.84375 L 308.289062 203.84375 C 306.164062 199.25 302.914062 195.128906 298.59375 191.972656 L 293.875 188.5 C 290.445312 184.335938 285.410156 181.941406 279.941406 181.941406 L 172.121094 181.941406 C 166.652344 181.941406 161.617188 184.335938 158.1875 188.5 L 153.480469 191.964844 C 149.152344 195.125 145.902344 199.25 143.777344 203.847656 L 126.449219 203.847656 C 108.945312 203.847656 94.703125 218.085938 94.703125 235.589844 L 94.703125 473.988281 C 94.703125 491.492188 108.949219 505.734375 126.449219 505.734375 L 209.335938 505.734375 C 209.429688 505.734375 209.519531 505.746094 209.617188 505.746094 L 242.449219 505.746094 C 242.542969 505.746094 242.632812 505.734375 242.730469 505.734375 L 325.617188 505.734375 C 343.121094 505.734375 357.363281 491.492188 357.363281 473.988281 L 357.363281 235.585938 C 357.363281 218.082031 343.117188 203.84375 325.617188 203.84375 Z M 301.011719 228.203125 L 247.875 323.988281 C 244.96875 311.359375 239.335938 301.085938 230.894531 292.789062 L 294.277344 211.234375 C 296.589844 208.242188 297.804688 204.785156 298.035156 201.285156 C 304.472656 208.597656 305.894531 219.375 301.007812 228.203125 Z M 242.589844 498.496094 L 209.472656 498.496094 C 202.410156 498.417969 196.679688 492.660156 196.679688 485.578125 L 196.679688 325.378906 L 202.882812 336.5625 C 203.53125 337.726562 204.75 338.425781 206.050781 338.425781 C 206.285156 338.425781 206.527344 338.40625 206.765625 338.355469 C 208.3125 338.042969 209.480469 336.765625 209.648438 335.195312 C 211.34375 319.5625 216.753906 307.441406 226.03125 298.191406 C 235.3125 307.441406 240.714844 319.558594 242.414062 335.195312 C 242.585938 336.761719 243.75 338.039062 245.292969 338.355469 C 245.535156 338.402344 245.773438 338.425781 246.011719 338.425781 C 247.308594 338.425781 248.53125 337.726562 249.175781 336.5625 L 255.378906 325.382812 L 255.378906 485.582031 C 255.378906 492.664062 249.652344 498.421875 242.585938 498.5 Z M 226.035156 287.25 L 179.527344 227.414062 C 210.410156 216.539062 241.652344 216.539062 272.539062 227.414062 L 226.03125 287.25 Z M 172.121094 189.179688 L 279.941406 189.179688 C 283.410156 189.179688 286.46875 190.671875 288.546875 193.386719 C 291.125 196.738281 292.128906 202.183594 288.558594 206.796875 L 277.199219 221.414062 C 243.226562 208.886719 208.824219 208.886719 174.851562 221.414062 L 163.496094 206.800781 C 159.925781 202.191406 160.929688 196.746094 163.507812 193.386719 C 165.585938 190.671875 168.644531 189.179688 172.113281 189.179688 Z M 154.023438 201.289062 C 154.257812 204.792969 155.472656 208.25 157.785156 211.238281 L 221.167969 292.792969 C 212.722656 301.089844 207.09375 311.363281 204.1875 323.992188 L 151.054688 228.203125 C 146.167969 219.375 147.589844 208.605469 154.023438 201.285156 Z M 101.9375 473.988281 L 101.9375 235.585938 C 101.9375 222.074219 112.933594 211.082031 126.445312 211.082031 L 141.449219 211.082031 C 140.148438 217.929688 141.132812 225.226562 144.722656 231.710938 L 189.445312 312.332031 L 189.445312 485.578125 C 189.445312 490.492188 191.214844 494.996094 194.140625 498.496094 L 126.445312 498.496094 C 112.933594 498.496094 101.9375 487.5 101.9375 473.988281 Z M 350.125 473.988281 C 350.125 487.5 339.128906 498.496094 325.617188 498.496094 L 257.921875 498.496094 C 260.847656 494.992188 262.617188 490.492188 262.617188 485.578125 L 262.617188 312.332031 L 307.339844 231.707031 C 310.929688 225.222656 311.910156 217.925781 310.613281 211.078125 L 325.617188 211.078125 C 339.128906 211.078125 350.125 222.070312 350.125 235.582031 Z M 116.414062 311.9375 L 116.414062 366.085938 C 116.414062 368.082031 114.792969 369.707031 112.792969 369.707031 C 110.796875 369.707031 109.175781 368.082031 109.175781 366.085938 L 109.175781 311.9375 C 109.175781 309.9375 110.796875 308.316406 112.792969 308.316406 C 114.792969 308.316406 116.414062 309.9375 116.414062 311.9375 Z M 116.414062 383.242188 L 116.414062 405.226562 C 116.414062 407.222656 114.792969 408.84375 112.792969 408.84375 C 110.796875 408.84375 109.175781 407.222656 109.175781 405.226562 L 109.175781 383.242188 C 109.175781 381.246094 110.796875 379.625 112.792969 379.625 C 114.792969 379.625 116.414062 381.246094 116.414062 383.242188 Z M 226.03125 336.871094 C 216.976562 336.871094 209.613281 344.234375 209.613281 353.289062 C 209.613281 362.34375 216.976562 369.707031 226.03125 369.707031 C 235.085938 369.707031 242.449219 362.34375 242.449219 353.289062 C 242.449219 344.234375 235.085938 336.871094 226.03125 336.871094 Z M 226.03125 362.472656 C 220.96875 362.472656 216.851562 358.351562 216.851562 353.289062 C 216.851562 348.226562 220.96875 344.109375 226.03125 344.109375 C 231.09375 344.109375 235.210938 348.226562 235.210938 353.289062 C 235.210938 358.351562 231.09375 362.472656 226.03125 362.472656 Z M 226.03125 396.425781 C 216.976562 396.425781 209.613281 403.792969 209.613281 412.847656 C 209.613281 421.902344 216.976562 429.265625 226.03125 429.265625 C 235.085938 429.265625 242.449219 421.902344 242.449219 412.847656 C 242.449219 403.792969 235.085938 396.425781 226.03125 396.425781 Z M 226.03125 422.027344 C 220.96875 422.027344 216.851562 417.910156 216.851562 412.847656 C 216.851562 407.785156 220.96875 403.664062 226.03125 403.664062 C 231.09375 403.664062 235.210938 407.785156 235.210938 412.847656 C 235.210938 417.910156 231.09375 422.027344 226.03125 422.027344 Z M 226.03125 455.984375 C 216.976562 455.984375 209.613281 463.347656 209.613281 472.402344 C 209.613281 481.457031 216.976562 488.824219 226.03125 488.824219 C 235.085938 488.824219 242.449219 481.457031 242.449219 472.402344 C 242.449219 463.347656 235.085938 455.984375 226.03125 455.984375 Z M 226.03125 481.585938 C 220.96875 481.585938 216.851562 477.464844 216.851562 472.402344 C 216.851562 467.339844 220.96875 463.222656 226.03125 463.222656 C 231.09375 463.222656 235.210938 467.339844 235.210938 472.402344 C 235.210938 477.464844 231.09375 481.585938 226.03125 481.585938 Z M 341.96875 334.8125 C 341.96875 322.5 315.644531 321.539062 307.574219 321.539062 C 299.503906 321.539062 273.175781 322.5 273.175781 334.8125 L 273.175781 366.21875 C 273.175781 379.8125 280.050781 392.242188 291.570312 399.472656 L 305.652344 408.296875 C 306.242188 408.667969 306.90625 408.851562 307.574219 408.851562 C 308.238281 408.851562 308.90625 408.667969 309.496094 408.296875 L 323.574219 399.472656 C 335.09375 392.246094 341.96875 379.816406 341.96875 366.21875 Z M 307.574219 328.777344 C 315.207031 328.777344 322.5625 329.609375 327.761719 331.058594 C 333.492188 332.65625 334.734375 334.453125 334.734375 334.8125 L 334.734375 344.566406 C 326.328125 340.671875 312.941406 340.226562 307.582031 340.226562 C 302.222656 340.226562 288.816406 340.671875 280.414062 344.574219 L 280.414062 334.816406 C 280.414062 333.152344 288.765625 328.78125 307.574219 328.78125 Z M 319.730469 393.332031 L 307.574219 400.953125 L 295.417969 393.332031 C 286.023438 387.441406 280.414062 377.300781 280.414062 366.214844 L 280.414062 353.566406 C 280.414062 353.542969 280.421875 353.523438 280.421875 353.503906 C 280.421875 351.839844 288.777344 347.460938 307.582031 347.460938 C 315.214844 347.460938 322.574219 348.292969 327.769531 349.738281 C 333.433594 351.320312 334.683594 353.03125 334.734375 353.46875 L 334.734375 366.214844 C 334.734375 377.304688 329.125 387.441406 319.730469 393.332031 Z M 319.730469 393.332031 " fill-opacity="1" fill-rule="nonzero"/></g></svg>