<svg xmlns="http://www.w3.org/2000/svg" xmlns:xlink="http://www.w3.org/1999/xlink" width="1080" zoomAndPan="magnify" viewBox="0 0 810 809.999993" height="1080" preserveAspectRatio="xMidYMid meet" version="1.0"><defs><g/></defs><g fill="#febd69" fill-opacity="1"><g transform="translate(135.083323, 440.807442)"><g><path d="M 24.117188 6.511719 C 38.667969 6.511719 54.234375 -8.546875 64.71875 -24.320312 C 64.71875 -25.746094 62.886719 -26.964844 61.867188 -26.964844 C 51.386719 -12.109375 37.546875 -1.730469 24.625 -1.730469 C 17.503906 -1.730469 14.449219 -5.085938 14.449219 -11.191406 C 14.449219 -30.832031 38.261719 -59.019531 50.371094 -59.019531 C 53.015625 -59.019531 54.644531 -57.492188 54.644531 -54.644531 C 54.644531 -48.539062 46.910156 -38.363281 41.515625 -35.308594 C 42.941406 -34.394531 44.570312 -33.988281 46.300781 -33.988281 C 54.03125 -33.988281 62.886719 -42.839844 62.886719 -51.488281 C 62.886719 -60.136719 54.132812 -65.125 46.707031 -65.125 C 28.390625 -65.125 4.171875 -34.496094 4.171875 -13.941406 C 4.171875 -1.730469 13.332031 6.511719 24.117188 6.511719 Z M 24.117188 6.511719 "/></g></g></g><g fill="#febd69" fill-opacity="1"><g transform="translate(186.266096, 440.807442)"><g><path d="M 26.457031 -49.859375 C 30.019531 -49.859375 44.671875 -54.03125 44.671875 -58.816406 C 44.671875 -60.238281 43.246094 -62.785156 40.195312 -62.785156 C 32.664062 -55.457031 24.523438 -52.8125 23.402344 -52.097656 C 23.402344 -50.980469 24.828125 -49.859375 26.457031 -49.859375 Z M 47.621094 -26.964844 C 37.851562 -12.515625 25.03125 -4.273438 18.011719 -4.273438 C 14.652344 -4.273438 13.226562 -6.410156 13.226562 -9.15625 L 13.226562 -9.464844 C 25.4375 -13.023438 39.992188 -27.78125 39.992188 -36.226562 C 39.992188 -40.804688 35.714844 -44.976562 30.628906 -44.976562 C 18.621094 -44.976562 3.050781 -21.777344 3.050781 -9.464844 C 3.050781 -2.035156 8.851562 3.359375 16.179688 3.359375 C 25.4375 3.359375 36.835938 -4.070312 50.472656 -24.320312 C 50.472656 -25.746094 48.640625 -26.964844 47.621094 -26.964844 Z M 32.5625 -38.058594 C 33.78125 -38.058594 34.292969 -37.445312 34.292969 -36.328125 C 34.292969 -31.339844 22.691406 -17.707031 14.246094 -14.652344 C 17.296875 -24.625 27.066406 -38.058594 32.5625 -38.058594 Z M 32.5625 -38.058594 "/></g></g></g><g fill="#febd69" fill-opacity="1"><g transform="translate(223.203162, 440.807442)"><g><path d="M 11.804688 2.746094 C 20.453125 2.746094 32.460938 -17.398438 36.835938 -24.320312 C 36.835938 -25.746094 35.003906 -26.964844 33.988281 -26.964844 C 25.4375 -13.941406 18.417969 -5.191406 14.957031 -5.191406 C 13.941406 -5.191406 13.332031 -6.105469 13.332031 -7.734375 C 13.332031 -17.808594 33.070312 -55.152344 38.464844 -58.203125 C 38.871094 -58.40625 39.074219 -58.714844 39.074219 -59.019531 C 39.074219 -60.75 35.816406 -64.105469 32.359375 -64.105469 C 27.167969 -64.105469 3.460938 -19.742188 3.460938 -7.226562 C 3.460938 -1.933594 7.632812 2.746094 11.804688 2.746094 Z M 11.804688 2.746094 "/></g></g></g><g fill="#febd69" fill-opacity="1"><g transform="translate(246.505053, 440.807442)"><g><path d="M 29.203125 -45.6875 C 30.527344 -48.539062 35.105469 -56.371094 39.480469 -59.019531 C 39.785156 -59.121094 39.992188 -59.324219 39.992188 -59.628906 C 39.992188 -61.054688 36.53125 -64.308594 32.765625 -64.308594 C 28.390625 -64.308594 24.421875 -56.78125 24.421875 -52.507812 C 24.421875 -47.722656 27.679688 -45.484375 29.203125 -45.6875 Z M 12.617188 2.441406 C 20.65625 2.441406 32.359375 -17.398438 36.835938 -24.320312 C 36.835938 -25.746094 35.003906 -26.964844 33.988281 -26.964844 C 25.234375 -13.941406 19.230469 -6.003906 15.46875 -6.003906 C 14.246094 -6.003906 13.738281 -7.121094 13.738281 -8.648438 C 13.738281 -15.570312 22.589844 -33.273438 26.355469 -35.308594 C 26.761719 -35.613281 26.863281 -35.921875 26.863281 -36.328125 C 26.863281 -38.464844 23.503906 -41.210938 19.84375 -41.210938 C 15.976562 -41.210938 3.359375 -18.011719 3.359375 -8.140625 C 3.359375 -1.730469 8.851562 2.441406 12.617188 2.441406 Z M 12.617188 2.441406 "/></g></g></g><g fill="#febd69" fill-opacity="1"><g transform="translate(269.806945, 440.807442)"><g><path d="M 12.617188 3.664062 C 19.128906 3.664062 26.761719 -15.058594 31.238281 -20.65625 L 32.054688 -20.453125 C 30.933594 -17.503906 29.609375 -13.636719 29.609375 -9.15625 C 29.609375 -2.746094 33.679688 0 36.226562 0 C 40.5 0 48.640625 -7.734375 58.613281 -24.320312 C 58.613281 -25.746094 56.78125 -26.964844 55.761719 -26.964844 C 47.316406 -14.550781 42.839844 -9.871094 39.683594 -9.871094 C 38.667969 -9.871094 38.261719 -10.582031 38.261719 -11.90625 C 38.261719 -15.976562 42.332031 -24.421875 43.449219 -24.625 C 43.652344 -24.828125 43.753906 -25.132812 43.753906 -25.539062 C 43.753906 -27.679688 39.886719 -30.628906 36.226562 -30.628906 C 31.238281 -30.628906 17.503906 -5.699219 14.246094 -5.699219 C 13.636719 -5.699219 13.125 -6.105469 13.125 -7.734375 C 13.125 -15.46875 24.320312 -38.363281 35.308594 -38.363281 C 38.464844 -38.363281 40.703125 -37.140625 40.601562 -32.5625 C 43.246094 -32.96875 44.367188 -34.699219 44.367188 -36.734375 C 44.367188 -40.5 37.851562 -45.382812 32.359375 -45.382812 C 20.046875 -45.382812 2.847656 -21.777344 2.847656 -7.9375 C 2.847656 -2.035156 7.632812 3.664062 12.617188 3.664062 Z M 12.617188 3.664062 "/></g></g></g><g fill="#febd69" fill-opacity="1"><g transform="translate(314.884415, 440.807442)"><g/></g></g><g fill="#febd69" fill-opacity="1"><g transform="translate(333.505595, 440.807442)"><g><path d="M 39.378906 -65.429688 C 24.726562 -65.429688 3.765625 -56.371094 3.765625 -43.652344 C 3.765625 -38.667969 7.019531 -34.597656 10.175781 -34.597656 C 10.175781 -43.753906 23.199219 -54.03125 36.632812 -56.984375 C 28.085938 -48.335938 9.566406 -11.703125 9.566406 -1.425781 C 9.566406 2.339844 14.347656 5.699219 17.09375 5.699219 C 17.910156 5.699219 18.519531 5.394531 18.824219 4.78125 C 18.824219 0.710938 21.980469 -8.851562 26.558594 -19.332031 C 28.085938 -15.773438 31.238281 -12.3125 37.957031 -12.3125 C 51.996094 -12.3125 66.855469 -27.167969 66.855469 -42.535156 C 66.855469 -56.476562 54.441406 -65.429688 39.378906 -65.429688 Z M 34.800781 -19.84375 C 31.441406 -19.84375 29.507812 -21.878906 29.507812 -24.828125 C 29.507812 -25.132812 29.507812 -25.539062 29.609375 -25.949219 C 34.699219 -36.429688 40.703125 -47.011719 45.992188 -53.117188 C 46.300781 -53.320312 46.402344 -53.625 46.402344 -54.03125 C 46.402344 -55.253906 44.875 -56.882812 43.042969 -57.898438 L 44.265625 -57.898438 C 54.339844 -57.898438 59.527344 -53.21875 59.527344 -46.808594 C 59.527344 -35.816406 44.671875 -19.84375 34.800781 -19.84375 Z M 34.800781 -19.84375 "/></g></g></g><g fill="#febd69" fill-opacity="1"><g transform="translate(393.948079, 440.807442)"><g><path d="M 47.621094 -26.964844 C 37.851562 -12.515625 25.03125 -4.273438 18.011719 -4.273438 C 14.652344 -4.273438 13.226562 -6.410156 13.226562 -9.15625 L 13.226562 -9.464844 C 25.4375 -13.023438 39.992188 -27.78125 39.992188 -36.226562 C 39.992188 -40.804688 35.714844 -44.976562 30.628906 -44.976562 C 18.621094 -44.976562 3.050781 -21.777344 3.050781 -9.464844 C 3.050781 -2.035156 8.851562 3.359375 16.179688 3.359375 C 25.4375 3.359375 36.835938 -4.070312 50.472656 -24.320312 C 50.472656 -25.746094 48.640625 -26.964844 47.621094 -26.964844 Z M 32.5625 -38.058594 C 33.78125 -38.058594 34.292969 -37.445312 34.292969 -36.328125 C 34.292969 -31.339844 22.691406 -17.707031 14.246094 -14.652344 C 17.296875 -24.625 27.066406 -38.058594 32.5625 -38.058594 Z M 32.5625 -38.058594 "/></g></g></g><g fill="#febd69" fill-opacity="1"><g transform="translate(430.885145, 440.807442)"><g><path d="M 29.203125 -45.6875 C 30.527344 -48.539062 35.105469 -56.371094 39.480469 -59.019531 C 39.785156 -59.121094 39.992188 -59.324219 39.992188 -59.628906 C 39.992188 -61.054688 36.53125 -64.308594 32.765625 -64.308594 C 28.390625 -64.308594 24.421875 -56.78125 24.421875 -52.507812 C 24.421875 -47.722656 27.679688 -45.484375 29.203125 -45.6875 Z M 12.617188 2.441406 C 20.65625 2.441406 32.359375 -17.398438 36.835938 -24.320312 C 36.835938 -25.746094 35.003906 -26.964844 33.988281 -26.964844 C 25.234375 -13.941406 19.230469 -6.003906 15.46875 -6.003906 C 14.246094 -6.003906 13.738281 -7.121094 13.738281 -8.648438 C 13.738281 -15.570312 22.589844 -33.273438 26.355469 -35.308594 C 26.761719 -35.613281 26.863281 -35.921875 26.863281 -36.328125 C 26.863281 -38.464844 23.503906 -41.210938 19.84375 -41.210938 C 15.976562 -41.210938 3.359375 -18.011719 3.359375 -8.140625 C 3.359375 -1.730469 8.851562 2.441406 12.617188 2.441406 Z M 12.617188 2.441406 "/></g></g></g><g fill="#febd69" fill-opacity="1"><g transform="translate(454.187049, 440.807442)"><g><path d="M 53.117188 -26.964844 C 46.09375 -16.382812 38.363281 -8.039062 33.679688 -8.039062 C 30.628906 -8.039062 28.289062 -11.398438 26.558594 -16.28125 C 36.328125 -24.726562 48.234375 -35.613281 48.234375 -39.378906 C 48.234375 -42.128906 44.875 -44.265625 42.433594 -44.265625 C 42.433594 -41.515625 36.023438 -31.136719 25.234375 -21.0625 C 24.320312 -25.234375 23.8125 -29.816406 23.8125 -34.191406 C 23.8125 -37.140625 24.015625 -39.992188 24.523438 -42.433594 C 24.828125 -42.738281 24.929688 -43.042969 24.929688 -43.246094 C 24.929688 -44.058594 23.710938 -44.46875 21.980469 -44.46875 C 19.230469 -44.46875 15.46875 -43.246094 14.753906 -40.296875 C 14.652344 -39.480469 14.550781 -36.429688 14.449219 -33.375 C 13.226562 -31.238281 12.007812 -29.101562 10.683594 -26.964844 C 10.683594 -25.644531 12.3125 -24.320312 13.535156 -24.320312 L 14.449219 -25.746094 C 14.652344 -22.183594 15.46875 -18.011719 16.789062 -14.246094 C 9.769531 -7.226562 4.171875 -1.324219 4.171875 2.339844 C 4.171875 5.085938 7.019531 7.121094 9.464844 6.917969 C 9.261719 4.78125 12.617188 -2.644531 18.722656 -9.363281 C 21.46875 -4.171875 25.234375 -0.203125 29.917969 -0.203125 C 39.582031 -0.203125 51.183594 -16.6875 55.964844 -24.320312 C 55.964844 -25.644531 54.339844 -26.964844 53.117188 -26.964844 Z M 53.117188 -26.964844 "/></g></g></g><g fill="#febd69" fill-opacity="1"><g transform="translate(496.618873, 440.807442)"><g><path d="M 53.828125 -24.320312 C 53.828125 -25.746094 51.996094 -26.964844 50.980469 -26.964844 C 45.890625 -19.742188 40.90625 -16.28125 36.328125 -14.652344 C 39.886719 -21.574219 42.230469 -28.796875 42.230469 -33.476562 C 42.230469 -40.296875 37.34375 -45.382812 32.054688 -45.382812 C 28.59375 -45.382812 25.234375 -43.144531 22.386719 -39.992188 C 14.957031 -37.34375 3.5625 -20.65625 3.5625 -9.972656 C 3.5625 -0.710938 12.007812 3.664062 16.890625 3.664062 C 22.183594 3.664062 27.78125 -1.425781 32.359375 -8.039062 C 38.464844 -9.363281 46.707031 -14.042969 53.828125 -24.320312 Z M 34.191406 -35.613281 C 34.191406 -30.222656 30.425781 -20.859375 25.949219 -13.433594 C 19.640625 -13.941406 17.296875 -17.296875 17.296875 -21.574219 L 17.296875 -21.878906 C 19.945312 -27.574219 23.8125 -32.460938 28.085938 -33.171875 C 28.796875 -32.867188 29.101562 -33.476562 29.101562 -34.496094 C 29.101562 -35.714844 28.59375 -37.445312 27.472656 -38.769531 C 28.695312 -39.480469 29.917969 -39.886719 31.035156 -39.886719 C 33.273438 -39.886719 34.191406 -38.261719 34.191406 -35.613281 Z M 15.46875 -1.933594 C 13.941406 -1.933594 13.226562 -3.664062 13.226562 -6.410156 C 13.226562 -8.648438 13.738281 -11.5 14.550781 -14.652344 C 16.382812 -11.703125 19.742188 -9.769531 22.996094 -8.648438 C 20.148438 -4.679688 17.398438 -1.933594 15.46875 -1.933594 Z M 15.46875 -1.933594 "/></g></g></g><g fill="#febd69" fill-opacity="1"><g transform="translate(536.913863, 440.807442)"><g><path d="M 40.195312 -26.964844 C 32.359375 -15.570312 21.980469 -5.085938 15.875 -5.085938 C 14.550781 -5.085938 13.941406 -6.105469 13.941406 -7.835938 C 13.941406 -13.839844 19.539062 -25.847656 25.644531 -36.125 C 30.425781 -36.328125 35.308594 -36.429688 38.058594 -36.429688 C 38.363281 -36.734375 38.566406 -37.34375 38.566406 -38.058594 C 38.566406 -39.886719 37.34375 -42.332031 33.375 -42.332031 C 32.359375 -42.332031 30.933594 -42.332031 29.40625 -42.230469 C 33.273438 -48.234375 36.835938 -52.710938 38.667969 -53.828125 C 39.074219 -54.03125 39.175781 -54.234375 39.175781 -54.644531 C 39.175781 -56.269531 36.023438 -59.628906 32.5625 -59.628906 C 30.324219 -59.628906 24.320312 -51.691406 18.417969 -41.71875 C 14.855469 -41.617188 11.90625 -41.414062 10.582031 -41.3125 C 10.074219 -40.601562 9.871094 -39.886719 9.871094 -39.175781 C 9.871094 -37.445312 11.191406 -35.816406 13.332031 -35.816406 L 14.957031 -35.816406 C 8.953125 -24.929688 3.867188 -13.125 3.867188 -7.019531 C 3.867188 -1.527344 8.140625 2.746094 12.921875 2.746094 C 23.609375 2.746094 38.261719 -16.6875 43.042969 -24.320312 C 43.042969 -25.644531 41.414062 -26.964844 40.195312 -26.964844 Z M 40.195312 -26.964844 "/></g></g></g><g fill="#febd69" fill-opacity="1"><g transform="translate(566.422803, 440.807442)"><g><path d="M 53.828125 -24.320312 C 53.828125 -25.746094 51.996094 -26.964844 50.980469 -26.964844 C 45.890625 -19.742188 40.90625 -16.28125 36.328125 -14.652344 C 39.886719 -21.574219 42.230469 -28.796875 42.230469 -33.476562 C 42.230469 -40.296875 37.34375 -45.382812 32.054688 -45.382812 C 28.59375 -45.382812 25.234375 -43.144531 22.386719 -39.992188 C 14.957031 -37.34375 3.5625 -20.65625 3.5625 -9.972656 C 3.5625 -0.710938 12.007812 3.664062 16.890625 3.664062 C 22.183594 3.664062 27.78125 -1.425781 32.359375 -8.039062 C 38.464844 -9.363281 46.707031 -14.042969 53.828125 -24.320312 Z M 34.191406 -35.613281 C 34.191406 -30.222656 30.425781 -20.859375 25.949219 -13.433594 C 19.640625 -13.941406 17.296875 -17.296875 17.296875 -21.574219 L 17.296875 -21.878906 C 19.945312 -27.574219 23.8125 -32.460938 28.085938 -33.171875 C 28.796875 -32.867188 29.101562 -33.476562 29.101562 -34.496094 C 29.101562 -35.714844 28.59375 -37.445312 27.472656 -38.769531 C 28.695312 -39.480469 29.917969 -39.886719 31.035156 -39.886719 C 33.273438 -39.886719 34.191406 -38.261719 34.191406 -35.613281 Z M 15.46875 -1.933594 C 13.941406 -1.933594 13.226562 -3.664062 13.226562 -6.410156 C 13.226562 -8.648438 13.738281 -11.5 14.550781 -14.652344 C 16.382812 -11.703125 19.742188 -9.769531 22.996094 -8.648438 C 20.148438 -4.679688 17.398438 -1.933594 15.46875 -1.933594 Z M 15.46875 -1.933594 "/></g></g></g><g fill="#febd69" fill-opacity="0.4"><g transform="translate(387.999305, 493.997365)"><g><path d="M 11.84375 -9.484375 C 11.84375 -8.210938 12.03125 -7.375 12.40625 -6.96875 C 12.789062 -6.570312 13.269531 -6.375 13.84375 -6.375 C 14.425781 -6.375 14.90625 -6.570312 15.28125 -6.96875 C 15.664062 -7.375 15.859375 -8.210938 15.859375 -9.484375 L 15.859375 -41.03125 L 26.4375 -41.03125 L 26.4375 -10.96875 C 26.4375 -3.082031 22.238281 0.859375 13.84375 0.859375 C 5.457031 0.859375 1.265625 -3.082031 1.265625 -10.96875 L 1.265625 -41.03125 L 11.84375 -41.03125 Z M 11.84375 -9.484375 "/></g></g></g><g fill="#febd69" fill-opacity="0.4"><g transform="translate(415.696827, 493.997365)"><g><path d="M 16.265625 -20.625 L 16.375 -20.625 L 16.375 -41.03125 L 25.34375 -41.03125 L 25.34375 0 L 16.375 0 L 10.40625 -22.9375 L 10.234375 -22.9375 L 10.234375 0 L 1.265625 0 L 1.265625 -41.03125 L 10.234375 -41.03125 Z M 16.265625 -20.625 "/></g></g></g><g fill="#febd69" fill-opacity="0.4"><g transform="translate(442.30254, 493.997365)"><g><path d="M 11.671875 0 L 1.09375 0 L 1.09375 -41.03125 L 11.671875 -41.03125 Z M 11.671875 0 "/></g></g></g><g fill="#febd69" fill-opacity="0.4"><g transform="translate(455.059493, 493.997365)"><g><path d="M 19.078125 -32.75 L 11.84375 -32.75 L 11.84375 -25.234375 L 18.046875 -25.234375 L 18.046875 -17.296875 L 11.84375 -17.296875 L 11.84375 0 L 1.265625 0 L 1.265625 -41.03125 L 19.078125 -41.03125 Z M 19.078125 -32.75 "/></g></g></g><g fill="#febd69" fill-opacity="0.4"><g transform="translate(474.194922, 493.997365)"><g><path d="M 13.84375 -41.890625 C 17.945312 -41.890625 21.070312 -40.910156 23.21875 -38.953125 C 25.363281 -37.003906 26.4375 -33.847656 26.4375 -29.484375 L 26.4375 -11.546875 C 26.4375 -7.222656 25.375 -4.070312 23.25 -2.09375 C 21.125 -0.125 17.988281 0.859375 13.84375 0.859375 C 9.707031 0.859375 6.578125 -0.101562 4.453125 -2.03125 C 2.328125 -3.96875 1.265625 -7.140625 1.265625 -11.546875 L 1.265625 -29.484375 C 1.265625 -33.804688 2.328125 -36.953125 4.453125 -38.921875 C 6.578125 -40.898438 9.707031 -41.890625 13.84375 -41.890625 Z M 11.84375 -32.46875 L 11.84375 -8.5625 C 11.84375 -7.757812 12.015625 -7.132812 12.359375 -6.6875 C 12.703125 -6.25 13.195312 -6.03125 13.84375 -6.03125 C 14.5 -6.03125 15 -6.25 15.34375 -6.6875 C 15.6875 -7.132812 15.859375 -7.757812 15.859375 -8.5625 L 15.859375 -32.46875 C 15.859375 -33.269531 15.6875 -33.890625 15.34375 -34.328125 C 15 -34.773438 14.5 -35 13.84375 -35 C 12.507812 -35 11.84375 -34.15625 11.84375 -32.46875 Z M 11.84375 -32.46875 "/></g></g></g><g fill="#febd69" fill-opacity="0.4"><g transform="translate(501.892444, 493.997365)"><g><path d="M 24.9375 -32.921875 L 24.9375 -28.796875 C 24.9375 -26.535156 24.421875 -24.835938 23.390625 -23.703125 C 22.359375 -22.578125 20.804688 -21.9375 18.734375 -21.78125 L 18.734375 -21.671875 C 20.992188 -21.515625 22.660156 -20.859375 23.734375 -19.703125 C 24.804688 -18.554688 25.34375 -16.851562 25.34375 -14.59375 L 25.34375 0 L 15.453125 0 L 15.453125 -15.75 C 15.453125 -18.007812 14.535156 -19.140625 12.703125 -19.140625 C 12.273438 -19.140625 11.875 -19.082031 11.5 -18.96875 L 11.5 0 L 1.265625 0 L 1.265625 -41.03125 L 13.625 -41.03125 C 16.070312 -41.03125 18.082031 -40.847656 19.65625 -40.484375 C 21.226562 -40.117188 22.5 -39.351562 23.46875 -38.1875 C 24.445312 -37.019531 24.9375 -35.265625 24.9375 -32.921875 Z M 12.234375 -25.34375 C 13.460938 -25.34375 14.304688 -25.617188 14.765625 -26.171875 C 15.222656 -26.734375 15.453125 -27.378906 15.453125 -28.109375 L 15.453125 -31.71875 C 15.453125 -32.40625 15.222656 -33.035156 14.765625 -33.609375 C 14.304688 -34.191406 13.484375 -34.484375 12.296875 -34.484375 L 11.5 -34.484375 L 11.5 -25.34375 Z M 12.234375 -25.34375 "/></g></g></g><g fill="#febd69" fill-opacity="0.4"><g transform="translate(528.498157, 493.997365)"><g><path d="M 18.109375 -17.0625 L 18.21875 -17.0625 L 20.6875 -41.03125 L 34.9375 -41.03125 L 34.9375 0 L 25.96875 0 L 25.96875 -30.453125 L 25.859375 -30.453125 L 21.4375 0 L 14.765625 0 L 10.34375 -30.453125 L 10.234375 -30.453125 L 10.234375 0 L 1.265625 0 L 1.265625 -41.03125 L 15.34375 -41.03125 Z M 18.109375 -17.0625 "/></g></g></g><g fill="#febd69" fill-opacity="0.4"><g transform="translate(564.700306, 493.997365)"><g><path d="M 19.140625 -32.75 L 11.84375 -32.75 L 11.84375 -25.234375 L 18.671875 -25.234375 L 18.671875 -17.296875 L 11.84375 -17.296875 L 11.84375 -8.28125 L 19.71875 -8.28125 L 19.71875 0 L 1.265625 0 L 1.265625 -41.03125 L 19.140625 -41.03125 Z M 19.140625 -32.75 "/></g></g></g><g fill="#febd69" fill-opacity="0.4"><g transform="translate(584.927534, 493.997365)"><g><path d="M 12.359375 -41.890625 C 20.128906 -41.890625 24.015625 -38.960938 24.015625 -33.109375 L 24.015625 -29.015625 L 14.546875 -29.015625 L 14.546875 -32.578125 C 14.546875 -34.421875 13.851562 -35.34375 12.46875 -35.34375 C 11.28125 -35.34375 10.6875 -34.5 10.6875 -32.8125 L 10.6875 -30.75 C 10.6875 -29.976562 10.953125 -29.253906 11.484375 -28.578125 C 12.023438 -27.910156 12.601562 -27.367188 13.21875 -26.953125 C 13.832031 -26.535156 14.8125 -25.921875 16.15625 -25.109375 C 17.800781 -24.117188 19.207031 -23.144531 20.375 -22.1875 C 21.539062 -21.226562 22.554688 -19.988281 23.421875 -18.46875 C 24.285156 -16.957031 24.71875 -15.171875 24.71875 -13.109375 L 24.71875 -9.421875 C 24.71875 -5.554688 23.613281 -2.875 21.40625 -1.375 C 19.207031 0.113281 16.191406 0.859375 12.359375 0.859375 C 8.140625 0.859375 5.164062 0.0195312 3.4375 -1.65625 C 1.71875 -3.34375 0.859375 -5.953125 0.859375 -9.484375 L 0.859375 -14.9375 L 10.75 -14.9375 L 10.75 -8.15625 C 10.75 -6.507812 11.34375 -5.6875 12.53125 -5.6875 C 13.175781 -5.6875 13.660156 -5.941406 13.984375 -6.453125 C 14.316406 -6.972656 14.484375 -7.847656 14.484375 -9.078125 L 14.484375 -11.265625 C 14.484375 -12.296875 14.203125 -13.210938 13.640625 -14.015625 C 13.085938 -14.828125 12.472656 -15.476562 11.796875 -15.96875 C 11.128906 -16.46875 10.1875 -17.101562 8.96875 -17.875 C 7.320312 -18.863281 5.953125 -19.800781 4.859375 -20.6875 C 3.765625 -21.570312 2.8125 -22.722656 2 -24.140625 C 1.195312 -25.554688 0.796875 -27.238281 0.796875 -29.1875 L 0.796875 -31.953125 C 0.796875 -38.578125 4.648438 -41.890625 12.359375 -41.890625 Z M 12.359375 -41.890625 "/></g></g></g><g fill="#febd69" fill-opacity="1"><g transform="translate(385.459733, 491.457781)"><g><path d="M 11.84375 -9.484375 C 11.84375 -8.210938 12.03125 -7.375 12.40625 -6.96875 C 12.789062 -6.570312 13.269531 -6.375 13.84375 -6.375 C 14.425781 -6.375 14.90625 -6.570312 15.28125 -6.96875 C 15.664062 -7.375 15.859375 -8.210938 15.859375 -9.484375 L 15.859375 -41.03125 L 26.4375 -41.03125 L 26.4375 -10.96875 C 26.4375 -3.082031 22.238281 0.859375 13.84375 0.859375 C 5.457031 0.859375 1.265625 -3.082031 1.265625 -10.96875 L 1.265625 -41.03125 L 11.84375 -41.03125 Z M 11.84375 -9.484375 "/></g></g></g><g fill="#febd69" fill-opacity="1"><g transform="translate(413.157255, 491.457781)"><g><path d="M 16.265625 -20.625 L 16.375 -20.625 L 16.375 -41.03125 L 25.34375 -41.03125 L 25.34375 0 L 16.375 0 L 10.40625 -22.9375 L 10.234375 -22.9375 L 10.234375 0 L 1.265625 0 L 1.265625 -41.03125 L 10.234375 -41.03125 Z M 16.265625 -20.625 "/></g></g></g><g fill="#febd69" fill-opacity="1"><g transform="translate(439.762968, 491.457781)"><g><path d="M 11.671875 0 L 1.09375 0 L 1.09375 -41.03125 L 11.671875 -41.03125 Z M 11.671875 0 "/></g></g></g><g fill="#febd69" fill-opacity="1"><g transform="translate(452.519921, 491.457781)"><g><path d="M 19.078125 -32.75 L 11.84375 -32.75 L 11.84375 -25.234375 L 18.046875 -25.234375 L 18.046875 -17.296875 L 11.84375 -17.296875 L 11.84375 0 L 1.265625 0 L 1.265625 -41.03125 L 19.078125 -41.03125 Z M 19.078125 -32.75 "/></g></g></g><g fill="#febd69" fill-opacity="1"><g transform="translate(471.65535, 491.457781)"><g><path d="M 13.84375 -41.890625 C 17.945312 -41.890625 21.070312 -40.910156 23.21875 -38.953125 C 25.363281 -37.003906 26.4375 -33.847656 26.4375 -29.484375 L 26.4375 -11.546875 C 26.4375 -7.222656 25.375 -4.070312 23.25 -2.09375 C 21.125 -0.125 17.988281 0.859375 13.84375 0.859375 C 9.707031 0.859375 6.578125 -0.101562 4.453125 -2.03125 C 2.328125 -3.96875 1.265625 -7.140625 1.265625 -11.546875 L 1.265625 -29.484375 C 1.265625 -33.804688 2.328125 -36.953125 4.453125 -38.921875 C 6.578125 -40.898438 9.707031 -41.890625 13.84375 -41.890625 Z M 11.84375 -32.46875 L 11.84375 -8.5625 C 11.84375 -7.757812 12.015625 -7.132812 12.359375 -6.6875 C 12.703125 -6.25 13.195312 -6.03125 13.84375 -6.03125 C 14.5 -6.03125 15 -6.25 15.34375 -6.6875 C 15.6875 -7.132812 15.859375 -7.757812 15.859375 -8.5625 L 15.859375 -32.46875 C 15.859375 -33.269531 15.6875 -33.890625 15.34375 -34.328125 C 15 -34.773438 14.5 -35 13.84375 -35 C 12.507812 -35 11.84375 -34.15625 11.84375 -32.46875 Z M 11.84375 -32.46875 "/></g></g></g><g fill="#febd69" fill-opacity="1"><g transform="translate(499.352872, 491.457781)"><g><path d="M 24.9375 -32.921875 L 24.9375 -28.796875 C 24.9375 -26.535156 24.421875 -24.835938 23.390625 -23.703125 C 22.359375 -22.578125 20.804688 -21.9375 18.734375 -21.78125 L 18.734375 -21.671875 C 20.992188 -21.515625 22.660156 -20.859375 23.734375 -19.703125 C 24.804688 -18.554688 25.34375 -16.851562 25.34375 -14.59375 L 25.34375 0 L 15.453125 0 L 15.453125 -15.75 C 15.453125 -18.007812 14.535156 -19.140625 12.703125 -19.140625 C 12.273438 -19.140625 11.875 -19.082031 11.5 -18.96875 L 11.5 0 L 1.265625 0 L 1.265625 -41.03125 L 13.625 -41.03125 C 16.070312 -41.03125 18.082031 -40.847656 19.65625 -40.484375 C 21.226562 -40.117188 22.5 -39.351562 23.46875 -38.1875 C 24.445312 -37.019531 24.9375 -35.265625 24.9375 -32.921875 Z M 12.234375 -25.34375 C 13.460938 -25.34375 14.304688 -25.617188 14.765625 -26.171875 C 15.222656 -26.734375 15.453125 -27.378906 15.453125 -28.109375 L 15.453125 -31.71875 C 15.453125 -32.40625 15.222656 -33.035156 14.765625 -33.609375 C 14.304688 -34.191406 13.484375 -34.484375 12.296875 -34.484375 L 11.5 -34.484375 L 11.5 -25.34375 Z M 12.234375 -25.34375 "/></g></g></g><g fill="#febd69" fill-opacity="1"><g transform="translate(525.958585, 491.457781)"><g><path d="M 18.109375 -17.0625 L 18.21875 -17.0625 L 20.6875 -41.03125 L 34.9375 -41.03125 L 34.9375 0 L 25.96875 0 L 25.96875 -30.453125 L 25.859375 -30.453125 L 21.4375 0 L 14.765625 0 L 10.34375 -30.453125 L 10.234375 -30.453125 L 10.234375 0 L 1.265625 0 L 1.265625 -41.03125 L 15.34375 -41.03125 Z M 18.109375 -17.0625 "/></g></g></g><g fill="#febd69" fill-opacity="1"><g transform="translate(562.160734, 491.457781)"><g><path d="M 19.140625 -32.75 L 11.84375 -32.75 L 11.84375 -25.234375 L 18.671875 -25.234375 L 18.671875 -17.296875 L 11.84375 -17.296875 L 11.84375 -8.28125 L 19.71875 -8.28125 L 19.71875 0 L 1.265625 0 L 1.265625 -41.03125 L 19.140625 -41.03125 Z M 19.140625 -32.75 "/></g></g></g><g fill="#febd69" fill-opacity="1"><g transform="translate(582.387962, 491.457781)"><g><path d="M 12.359375 -41.890625 C 20.128906 -41.890625 24.015625 -38.960938 24.015625 -33.109375 L 24.015625 -29.015625 L 14.546875 -29.015625 L 14.546875 -32.578125 C 14.546875 -34.421875 13.851562 -35.34375 12.46875 -35.34375 C 11.28125 -35.34375 10.6875 -34.5 10.6875 -32.8125 L 10.6875 -30.75 C 10.6875 -29.976562 10.953125 -29.253906 11.484375 -28.578125 C 12.023438 -27.910156 12.601562 -27.367188 13.21875 -26.953125 C 13.832031 -26.535156 14.8125 -25.921875 16.15625 -25.109375 C 17.800781 -24.117188 19.207031 -23.144531 20.375 -22.1875 C 21.539062 -21.226562 22.554688 -19.988281 23.421875 -18.46875 C 24.285156 -16.957031 24.71875 -15.171875 24.71875 -13.109375 L 24.71875 -9.421875 C 24.71875 -5.554688 23.613281 -2.875 21.40625 -1.375 C 19.207031 0.113281 16.191406 0.859375 12.359375 0.859375 C 8.140625 0.859375 5.164062 0.0195312 3.4375 -1.65625 C 1.71875 -3.34375 0.859375 -5.953125 0.859375 -9.484375 L 0.859375 -14.9375 L 10.75 -14.9375 L 10.75 -8.15625 C 10.75 -6.507812 11.34375 -5.6875 12.53125 -5.6875 C 13.175781 -5.6875 13.660156 -5.941406 13.984375 -6.453125 C 14.316406 -6.972656 14.484375 -7.847656 14.484375 -9.078125 L 14.484375 -11.265625 C 14.484375 -12.296875 14.203125 -13.210938 13.640625 -14.015625 C 13.085938 -14.828125 12.472656 -15.476562 11.796875 -15.96875 C 11.128906 -16.46875 10.1875 -17.101562 8.96875 -17.875 C 7.320312 -18.863281 5.953125 -19.800781 4.859375 -20.6875 C 3.765625 -21.570312 2.8125 -22.722656 2 -24.140625 C 1.195312 -25.554688 0.796875 -27.238281 0.796875 -29.1875 L 0.796875 -31.953125 C 0.796875 -38.578125 4.648438 -41.890625 12.359375 -41.890625 Z M 12.359375 -41.890625 "/></g></g></g></svg>